<svg width="50" height="50" viewBox="0 0 50 50" fill="none" xmlns="http://www.w3.org/2000/svg">
<circle cx="25" cy="25" r="25" fill="white"/>
<path fill-rule="evenodd" clip-rule="evenodd" d="M37.266 35.0414C34.2362 38.9996 29.4653 41.5505 24.0958 41.5505C14.9434 41.5505 7.52246 34.1329 7.52246 24.9771C7.52246 15.8214 14.9434 8.40723 24.0958 8.40723C29.2532 8.40723 33.8561 10.7597 36.8956 14.4536L36.8756 14.4765C34.031 11.3705 29.9437 9.42464 25.404 9.42464C16.8136 9.42464 9.84854 16.3897 9.84854 24.9767C9.84854 33.5636 16.3244 40.0331 24.4921 40.5057C24.6309 40.5125 24.7731 40.5189 24.9148 40.5223C25.0766 40.5291 25.2417 40.5321 25.404 40.5321C30.1553 40.5321 34.4107 38.401 37.2655 35.0409L37.266 35.0414Z" fill="#00174F"/>
<path fill-rule="evenodd" clip-rule="evenodd" d="M13.4561 15.8177C16.2151 12.2162 20.5565 9.89355 25.4432 9.89355C29.851 9.89355 33.8156 11.7833 36.5747 14.7969L35.3193 16.1451C32.7254 12.8974 28.7344 10.8191 24.2538 10.8191C19.7731 10.8191 16.0529 12.7621 13.4561 15.8182V15.8177Z" fill="#00174F"/>
<path fill-rule="evenodd" clip-rule="evenodd" d="M40.5295 24.977C40.5295 33.3098 33.776 40.0633 25.4432 40.0633C25.3274 40.0633 25.2121 40.0633 25.0997 40.0569C24.8451 40.0535 24.5944 40.0437 24.3461 40.0237C19.909 39.7031 16.0064 37.4699 13.4561 34.1391C16.0167 37.1523 19.8196 39.0855 24.0754 39.1348C24.135 39.1382 24.1941 39.1382 24.2538 39.1382C24.6701 39.1382 25.0796 39.1216 25.4862 39.082C32.7288 38.4609 38.4116 32.3814 38.4116 24.977C38.4116 23.1298 38.0583 21.3623 37.4137 19.7433L38.6823 17.7441C39.862 19.8919 40.5295 22.3567 40.5295 24.977Z" fill="#00174F"/>
<path d="M24.806 28.8915L18.9072 18.6792L24.806 38.1191L31.2267 21.9968L24.806 28.8915Z" fill="#0579D8"/>
<path d="M13.5068 18.6792L22.105 33.5055L24.8054 38.1191L18.9067 18.6792H13.5068Z" fill="url(#paint0_linear_1988_8174)"/>
<path d="M31.2263 21.9965L24.8057 38.1188L27.5056 33.5052L42.4971 9.89258L31.2263 21.9965Z" fill="url(#paint1_linear_1988_8174)"/>
<defs>
<linearGradient id="paint0_linear_1988_8174" x1="19.864" y1="21.5775" x2="18.3149" y2="36.5006" gradientUnits="userSpaceOnUse">
<stop stop-color="#4DAFFF"/>
<stop offset="1" stop-color="#008CFF"/>
</linearGradient>
<linearGradient id="paint1_linear_1988_8174" x1="38.512" y1="16.2502" x2="29.5453" y2="28.0453" gradientUnits="userSpaceOnUse">
<stop stop-color="#4DAFFF"/>
<stop offset="1" stop-color="#008CFF"/>
</linearGradient>
</defs>
</svg>
